:SAMPLES-PER-SECOND 30
:FULLY-SPECIFIED
:DEGREES
243
root  0.665271 18.9542 -5.40994 61.4466 -7.24493 1.92211
RightUpLeg  -40.3165 -8.54566 -2.13267
RightLeg  88.4955 15.9408 -3.58179
RightFoot  -4.08182 -0.783694 9.79568
RightToes  5.82077e-011 -3.18055e-015 -2.98177e-016
Spine  25.6203 -3.54117 9.49951
Spine1  -4.60437 -1.23909 -5.70474
HEad  -27.94 3.657 5.36678
LeftShoulder1  -3.88251e-019 9.70628e-020 -3.87848e-018
LeftArm  -3.94108 12.7751 -68.3595
LeftForeArm  14.2072 -23.38 1.77475
LeftHand  -13.014 -13.2465 72.0968
RightShoulder  3.34108 9.1045 14.8099
RightArm  -0.375694 13.5674 74.3674
RightForeArm  14.8634 12.4875 -9.37245
RightHand  -12.2864 10.8728 -74.7599
LeftUpLeg  -58.7175 -3.75022 -14.7372
LeftLeg  105.493 -17.314 11.9856
LeftFoot  -13.755 -0.0782783 -7.17832
LeftToes  9.37148e-011 4.50685e-012 -4.11107e-011
244
root  0.848535 19.1577 -4.90614 61.1708 -7.35952 -0.777427
RightUpLeg  -44.4991 -7.48215 -0.839517
RightLeg  94.8212 16.4087 -4.57751
RightFoot  -6.1149 -0.399936 6.66568
RightToes  5.82077e-011 -3.18055e-015 -2.98177e-016
Spine  26.7338 -2.96314 12.9408
Spine1  -5.13619 0.364198 -6.86904
HEad  -28.7047 4.22734 5.74336
LeftShoulder1  -3.88251e-019 9.70628e-020 -3.87848e-018
LeftArm  -2.45382 11.2855 -67.3524
LeftForeArm  11.4663 -27.8829 5.91097
LeftHand  -12.6585 -13.0865 71.048
RightShoulder  3.46682 9.38807 15.1579
RightArm  -1.61704 12.2669 73.1877
RightForeArm  16.9848 12.8873 -9.90531
RightHand  -12.5543 11.0344 -75.4185
LeftUpLeg  -56.8028 -1.90562 -13.3548
LeftLeg  104.049 -16.8477 11.5153
LeftFoot  -13.7168 -0.0703437 -6.02529
LeftToes  9.37148e-011 4.50685e-012 -4.11107e-011
245
root  0.94726 19.3222 -4.48843 59.9185 -7.85669 -3.31876
RightUpLeg  -48.5181 -5.4591 0.158919
RightLeg  101.646 17.474 -6.88448
RightFoot  -9.55508 -0.0977277 3.66784
RightToes  5.82077e-011 -3.18055e-015 -2.98177e-016
Spine  29.543 -2.24388 14.6939
Spine1  -6.368 1.8584 -6.92454
HEad  -29.0828 4.73586 5.4242
LeftShoulder1  -3.88251e-019 9.70628e-020 -3.87848e-018
LeftArm  -4.61535 7.636 -65.1547
LeftForeArm  11.7694 -31.8132 7.52555
LeftHand  -11.8465 -12.9156 67.9889
RightShoulder  3.46571 9.55915 14.8999
RightArm  -2.25916 11.1175 72.2874
RightForeArm  18.1215 12.9602 -10.0406
RightHand  -12.6369 11.0201 -75.8335
LeftUpLeg  -53.9968 0.610144 -12.5511
LeftLeg  102.669 -16.6136 11.649
LeftFoot  -13.4767 -0.0544252 -5.423
LeftToes  9.37148e-011 4.50685e-012 -4.11107e-011
246
root  0.878506 19.3836 -4.17612 58.7754 -8.59751 -5.65228
RightUpLeg  -53.1846 -2.50073 1.57833
RightLeg  108.829 18.9461 -8.49111
RightFoot  -14.2605 0.0216436 -0.932458
RightToes  5.82077e-011 -3.18055e-015 -2.98177e-016
Spine  32.8539 -0.796892 13.75
Spine1  -8.01823 3.25077 -4.52477
HEad  -29.2261 5.38299 4.38865
LeftShoulder1  -3.88251e-019 9.70628e-020 -3.87848e-018
LeftArm  -6.16128 1.84336 -62.3797
LeftForeArm  8.51275 -32.3739 7.50458
LeftHand  -11.0085 -12.6249 64.997
RightShoulder  3.29177 9.60937 13.7852
RightArm  -2.28577 10.2079 72.2598
RightForeArm  18.9082 12.5018 -9.8378
RightHand  -12.7291 11.0629 -76.0956
LeftUpLeg  -51.3907 3.57905 -11.7189
LeftLeg  101.65 -16.3861 11.5739
LeftFoot  -13.6373 -0.0674062 -6.44846
LeftToes  9.37148e-011 4.50685e-012 -4.11107e-011
247
root  0.80214 19.3622 -3.80949 58.1257 -8.75182 -6.71815
RightUpLeg  -58.3707 -0.840434 3.13725
RightLeg  115.887 19.997 -8.29532
RightFoot  -19.2674 -0.195026 -5.05882
RightToes  5.82077e-011 -3.18055e-015 -2.98177e-016
Spine  34.8236 0.135766 12.3543
Spine1  -9.12513 3.75915 -1.70477
HEad  -29.4887 6.19025 3.5905
LeftShoulder1  -3.88251e-019 9.70628e-020 -3.87848e-018
LeftArm  -6.56361 -5.60243 -59.0655
LeftForeArm  3.71954 -28.9952 6.13132
LeftHand  -10.0139 -12.026 61.8914
RightShoulder  3.23713 9.75331 13.2585
RightArm  -2.19029 9.34016 72.5173
RightForeArm  19.9988 12.2957 -9.63321
RightHand  -12.9446 11.2277 -76.4838
LeftUpLeg  -49.3647 5.10501 -11.2196
LeftLeg  100.389 -16.2683 12.0731
LeftFoot  -13.8585 -0.0963732 -8.61462
LeftToes  9.37148e-011 4.50685e-012 -4.11107e-011
248
root  0.796537 19.3961 -3.29848 56.5087 -7.83275 -7.19644
RightUpLeg  -62.2624 -0.353159 5.35131
RightLeg  121.803 20.2374 -7.08018
RightFoot  -23.344 -0.276408 -4.17489
RightToes  5.82077e-011 -3.18055e-015 -2.98177e-016
Spine  37.3889 -0.472678 12.6556
Spine1  -10.1987 3.45009 -0.583994
HEad  -29.8336 7.01712 3.46028
LeftShoulder1  -3.88251e-019 9.70628e-020 -3.87848e-018
LeftArm  -7.79731 -13.4043 -55.4399
LeftForeArm  2.96924 -24.0037 3.45976
LeftHand  -8.4257 -11.1223 56.0019
RightShoulder  3.47824 10.0295 14.3039
RightArm  -1.81851 8.46548 72.267
RightForeArm  21.0041 12.7632 -9.42359
RightHand  -13.1515 11.3473 -76.9766
LeftUpLeg  -46.2323 5.5354 -10.1812
LeftLeg  98.5912 -16.1657 13.1999
LeftFoot  -14.0406 -0.128689 -10.9939
LeftToes  9.37148e-011 4.50685e-012 -4.11107e-011
249
root  0.804909 19.4242 -2.73214 54.534 -6.72985 -7.34973
RightUpLeg  -65.5159 -0.0289687 7.64114
RightLeg  126.354 19.8935 -5.64737
RightFoot  -26.9093 0.0992196 0.102316
RightToes  5.82077e-011 -3.18055e-015 -2.98177e-016
Spine  40.1646 -1.5858 13.0769
Spine1  -11.2385 2.74472 0.0829033
HEad  -30.0523 7.90377 3.32941
LeftShoulder1  -3.88251e-019 9.70628e-020 -3.87848e-018
LeftArm  -10.2966 -20.1325 -52.2566
LeftForeArm  6.04725 -19.1179 0.788336
LeftHand  -6.51558 -9.98977 47.8121
RightShoulder  3.83868 10.2648 16.065
RightArm  -0.918927 7.68725 71.7834
RightForeArm  21.7907 13.4219 -9.05191
RightHand  -13.3162 11.3963 -77.5151
LeftUpLeg  -42.5524 5.54663 -9.17517
LeftLeg  96.4185 -15.9816 14.6595
LeftFoot  -13.4707 -0.0714592 -10.564
LeftToes  9.37148e-011 4.50685e-012 -4.11107e-011
